<svg width="360" height="134" viewBox="0 0 360 134" fill="none" xmlns="http://www.w3.org/2000/svg">
<path fill-rule="evenodd" clip-rule="evenodd" d="M79.5381 66.012L83.102 65.688L87.314 67.956L87.5634 81.1736C87.612 83.7512 88.4276 86.2558 89.9059 88.3677C92.7054 92.0285 95.0924 95.987 97.0236 100.171L97.8266 101.911C98.0186 102.206 98.2857 102.446 98.6221 102.552C98.7556 102.594 98.8827 102.624 98.9778 102.624C99.0851 102.624 99.8061 102.42 100.76 102.151L100.762 102.15C101.403 101.97 102.148 101.76 102.883 101.562C104.337 101.17 105.872 101.344 107.24 101.975L108.349 102.488C108.833 102.711 108.946 103.347 108.57 103.723C108.241 104.052 107.781 104.214 107.319 104.162L106.315 104.051C105.556 103.966 104.794 104.174 104.183 104.632L102.678 105.761C102.588 105.829 102.51 105.912 102.447 106.006C102.178 106.409 102.242 106.936 102.573 107.266L105.355 109.107L106.037 109.516C106.268 109.654 106.563 109.618 106.754 109.427L107.171 109.01C107.734 108.448 108.05 107.684 108.05 106.889V106.187V105.466C108.05 104.884 108.248 104.32 108.611 103.866C108.928 103.47 109.557 103.582 109.718 104.064L109.961 104.793C110.401 106.114 110.368 107.546 109.869 108.845L109.346 110.205L109.674 110.106C111.072 109.687 112.134 108.545 112.45 107.121C112.521 106.801 112.861 106.622 113.165 106.743L113.194 106.755C113.777 106.988 114.106 107.61 113.969 108.223L113.706 109.406C113.609 109.843 113.389 110.244 113.073 110.56L112.69 110.943C111.393 112.24 109.584 112.886 107.76 112.703L104.417 112.369L104.4 112.394L104.51 112.467C104.709 112.6 104.923 112.709 105.149 112.791L107.388 113.605C107.788 113.751 107.846 114.293 107.484 114.519C106.427 115.18 105.101 115.243 103.986 114.685L103.19 114.287C101.685 113.427 100.301 112.37 99.0748 111.144L98.9778 111.047L92.8219 104.568L90.3493 102.33C87.4729 99.7279 84.9298 96.7792 82.778 93.5517C81.0706 90.1368 80.1288 86.3906 80.0182 82.5744L79.5381 66.012Z" fill="#4095D0"/>
<path fill-rule="evenodd" clip-rule="evenodd" d="M48.9529 66.336L45.1947 63.744L41.3067 64.716L40.846 81.4796C40.7748 84.0692 39.9361 86.5794 38.4363 88.6917L45.6664 93.8756C47.3978 90.4618 48.3539 86.7077 48.4664 82.8817L48.9529 66.336ZM38.4362 88.6917C35.5967 92.3524 33.1756 96.3107 31.217 100.494L30.4013 102.236C30.2076 102.53 29.9393 102.768 29.6029 102.874C29.4646 102.917 29.3326 102.947 29.2342 102.947C29.1256 102.947 28.3961 102.745 27.4304 102.476L27.4284 102.476L27.4268 102.475L27.4263 102.475C26.7583 102.289 25.9778 102.072 25.2119 101.869C23.7752 101.488 22.2608 101.659 20.908 102.275L19.7335 102.809C19.2435 103.032 19.129 103.677 19.5124 104.055C19.8413 104.379 20.2987 104.538 20.7578 104.488L21.8234 104.371C22.5734 104.289 23.3269 104.493 23.9336 104.941L25.4826 106.087C25.573 106.153 25.6513 106.235 25.7142 106.328C25.9865 106.731 25.9227 107.261 25.589 107.589L22.7655 109.431L22.0726 109.84C21.8385 109.979 21.5405 109.942 21.3468 109.751L20.9261 109.337C20.3542 108.773 20.0322 108.003 20.0322 107.2V106.511V105.807C20.0322 105.215 19.8285 104.64 19.4552 104.18C19.135 103.786 18.5055 103.899 18.3427 104.38L18.1024 105.091C17.6507 106.427 17.684 107.88 18.1966 109.194L18.7176 110.529L18.3604 110.423C16.9577 110.008 15.8892 108.867 15.5675 107.44C15.4959 107.122 15.1576 106.943 14.8545 107.063L14.82 107.076C14.2261 107.311 13.8915 107.943 14.0319 108.566L14.2944 109.73C14.3929 110.167 14.6148 110.567 14.9337 110.881L15.3372 111.279C16.6461 112.569 18.4608 113.211 20.29 113.031L23.7175 112.693L23.734 112.718L23.6174 112.795C23.4189 112.925 23.2056 113.032 22.9821 113.112L20.7195 113.923C20.31 114.07 20.252 114.625 20.6224 114.854C21.6867 115.509 23.0133 115.572 24.1345 115.019L24.9618 114.611C26.4887 113.751 27.8924 112.694 29.136 111.468L29.2342 111.371L35.4784 104.891L37.9872 102.654C40.9044 100.052 43.4839 97.1031 45.6664 93.8756L38.4362 88.6917Z" fill="#4095D0"/>
<path d="M71.3191 68.6094C71.3191 72.3516 68.2854 75.3853 64.5432 75.3853C60.801 75.3853 57.7673 72.3516 57.7673 68.6094C57.7673 64.8672 60.801 61.8335 64.5432 61.8335C68.2854 61.8335 71.3191 64.8672 71.3191 68.6094Z" stroke="#3BE2B0" stroke-width="2"/>
<path d="M66.1352 68.6094C66.1352 69.4886 65.4225 70.2013 64.5433 70.2013C63.664 70.2013 62.9513 69.4886 62.9513 68.6094C62.9513 67.7301 63.664 67.0174 64.5433 67.0174C65.4225 67.0174 66.1352 67.7301 66.1352 68.6094Z" stroke="#3BE2B0" stroke-width="2"/>
<line x1="64.8953" y1="62.7775" x2="64.8953" y2="65.3694" stroke="#3BE2B0" stroke-width="2"/>
<line x1="64.8953" y1="71.8493" x2="64.8953" y2="74.4413" stroke="#3BE2B0" stroke-width="2"/>
<line x1="67.7832" y1="68.2573" x2="70.3752" y2="68.2573" stroke="#3BE2B0" stroke-width="2"/>
<line x1="58.7114" y1="68.2573" x2="61.3034" y2="68.2573" stroke="#3BE2B0" stroke-width="2"/>
<path fill-rule="evenodd" clip-rule="evenodd" d="M70.4068 50.9898C69.2039 51.8929 67.1304 52.9507 65.1913 53.3816C62.8585 53.9 59.0353 51.7616 58.0634 50.4656L58.0443 50.3448C56.6317 52.3996 54.3393 53.8164 51.6746 54.0296C46.4993 54.6046 42.3358 58.5473 41.4797 63.6835L41.3067 64.7215L45.3468 64.1443L52.3361 82.2786C55.0922 89.4297 52.0121 97.5081 45.1947 101.009L45.2266 101.009L36.5182 103.79C30.7215 105.641 25.4477 108.843 21.1313 113.133L19.6524 114.602C16.1256 118.107 15.8225 123.712 18.9509 127.577C23.7177 133.106 31.6243 134.704 38.1645 131.461L64.2843 118.507L89.4651 131.198C96.3026 134.644 104.58 133.315 109.994 127.901L110.895 125.948C112.685 122.069 111.838 117.483 108.78 114.5C103.403 109.253 96.8546 105.359 89.6765 103.14L82.7834 101.009L82.7776 101.009C76.2879 97.4853 73.412 89.6996 76.053 82.8035L82.3485 66.3653L87.3141 67.9614L87.1432 65.8537C86.6701 60.0184 82.3548 55.2192 76.6023 54.1309L74.3543 53.7056C72.7086 53.2942 71.3283 52.3063 70.4068 50.9898ZM76.9462 109.433L63.951 115.039L55.8865 109.109L45.1795 111.105C39.6507 112.136 34.4405 114.448 29.9669 117.857C29.7416 117.969 29.5087 117.891 29.3761 117.73C33.4166 114.687 37.8555 112.187 42.5809 110.305L43.7145 109.854C45.411 109.325 47.1651 108.995 48.9414 108.873L59.3745 108.153C62.6586 107.927 65.9564 107.992 69.2289 108.349L82.1302 109.757L84.2066 110.172C89.8944 111.649 95.2506 114.254 99.9478 117.855C100.059 117.979 99.9713 118.181 99.8009 118.181C99.4763 118.181 99.1597 118.08 98.8948 117.892L98.0679 117.307C93.75 114.248 88.8655 112.082 83.7001 110.934L76.9462 109.433ZM74.9111 68.6148C74.9111 74.3408 70.2693 78.9826 64.5433 78.9826C58.8173 78.9826 54.1754 74.3408 54.1754 68.6148C54.1754 62.8887 58.8173 58.2469 64.5433 58.2469C70.2693 58.2469 74.9111 62.8887 74.9111 68.6148Z" fill="url(#paint0_linear_866_55671)"/>
<path fill-rule="evenodd" clip-rule="evenodd" d="M59.5424 45.2591L59.4505 42.0417H69.1704V47.0661C69.1704 48.5102 69.6223 49.8691 70.4068 50.9898C69.204 51.8929 67.1304 52.9507 65.1913 53.3816C62.8585 53.9 59.0354 51.7616 58.0634 50.4656L58.0443 50.3448C58.1356 50.2121 58.2232 50.0766 58.307 49.9387C59.1353 48.575 59.5912 46.966 59.5424 45.2591Z" fill="#4095D0" fill-opacity="0.5"/>
<path fill-rule="evenodd" clip-rule="evenodd" d="M64.3104 47.8683C67.7806 47.8683 70.2773 45.0268 71.6489 41.0246C73.0797 40.9033 73.9985 39.2212 74.3543 37.5004C74.7555 35.5594 74.3988 34.3946 72.8514 34.3083C73.1644 27.69 70.9503 23.25 64.6344 23.25C58.1647 23.25 55.5786 27.9623 55.8257 34.2511C53.9399 33.9847 53.8246 36.2516 54.2665 38.1484C54.7043 40.0278 55.2179 41.0249 57.0697 41.3686C58.4605 45.4792 60.9212 47.8683 64.3104 47.8683Z" fill="#4095D0"/>
<path d="M36.2123 105.891L35.6779 106.693C35.364 107.164 35.3909 107.784 35.7444 108.225C36.1883 108.78 36.8604 109.103 37.571 109.103H38.7779C39.8063 109.103 40.8253 109.3 41.7801 109.682L42.1408 109.826C43.0915 110.206 44.093 110.444 45.1131 110.533L46.7132 110.672C49.5532 110.919 52.3028 111.795 54.7631 113.235L63.8084 118.53C64.1187 118.711 64.5026 118.712 64.8139 118.532L75.7053 112.24C77.7838 111.039 80.1661 110.467 82.5632 110.593L83.3245 110.633C84.4609 110.693 85.5979 110.526 86.6696 110.144L87.8001 109.74C88.9818 109.318 90.2185 109.07 91.4715 109.004C93.0374 108.922 93.7167 106.983 92.5447 105.941L92.1923 105.628C90.7297 104.328 88.8064 103.669 86.8537 103.799L83.6218 104.014C81.402 104.162 79.2006 103.527 77.4014 102.218L76.6222 101.652C74.6539 100.22 71.8978 100.655 70.4663 102.624L70.0531 104.552C69.7189 106.111 68.4294 107.285 66.8456 107.471L65.5581 107.623C64.5174 107.745 63.4636 107.695 62.4389 107.476L61.0402 107.176C60.0524 106.964 59.2455 106.255 58.9093 105.302L58.0881 102.976C57.7284 101.957 56.8502 101.208 55.7869 101.015C54.597 100.799 53.3691 101.017 52.3267 101.63L50.6028 102.644C49.1862 103.477 47.5629 103.893 45.9202 103.843L40.5004 103.679C38.7851 103.627 37.1642 104.463 36.2123 105.891Z" fill="#4095D0"/>
<path d="M161.576 110.048L169.32 91.872L169.448 97.248L153 61.344H164.648L171.816 78.496C172.2 79.3067 172.563 80.224 172.904 81.248C173.245 82.272 173.501 83.232 173.672 84.128L172.2 84.96C172.456 84.32 172.733 83.5093 173.032 82.528C173.373 81.5467 173.736 80.5013 174.12 79.392L180.392 61.344H192.104L177.704 95.328L171.88 110.048H161.576Z" fill="#212B36"/>
<path d="M212.285 95.968C208.786 95.968 205.65 95.2213 202.877 93.728C200.104 92.192 197.928 90.1013 196.349 87.456C194.77 84.768 193.981 81.7387 193.981 78.368C193.981 74.912 194.77 71.8613 196.349 69.216C197.928 66.528 200.104 64.4373 202.877 62.944C205.65 61.408 208.786 60.64 212.285 60.64C215.826 60.64 218.962 61.408 221.693 62.944C224.466 64.4373 226.642 66.528 228.221 69.216C229.8 71.8613 230.589 74.912 230.589 78.368C230.589 81.7387 229.8 84.768 228.221 87.456C226.642 90.1013 224.466 92.192 221.693 93.728C218.962 95.2213 215.826 95.968 212.285 95.968ZM212.285 87.136C213.821 87.136 215.165 86.752 216.317 85.984C217.512 85.216 218.45 84.1707 219.133 82.848C219.816 81.5253 220.136 80.032 220.093 78.368C220.136 76.6187 219.816 75.0827 219.133 73.76C218.45 72.3947 217.512 71.3493 216.317 70.624C215.165 69.856 213.821 69.472 212.285 69.472C210.792 69.472 209.448 69.856 208.253 70.624C207.058 71.392 206.12 72.4373 205.437 73.76C204.754 75.0827 204.413 76.6187 204.413 78.368C204.413 80.032 204.754 81.5253 205.437 82.848C206.12 84.1707 207.058 85.216 208.253 85.984C209.448 86.752 210.792 87.136 212.285 87.136Z" fill="#212B36"/>
<path d="M252.839 110.048C250.108 110.048 247.356 109.643 244.582 108.832C241.852 108.064 239.633 107.04 237.926 105.76L241.51 98.464C242.876 99.4027 244.412 100.128 246.118 100.64C247.868 101.195 249.681 101.472 251.559 101.472C253.735 101.472 255.505 101.152 256.87 100.512C258.236 99.872 259.239 98.912 259.879 97.632C260.561 96.352 260.903 94.752 260.903 92.832V87.2L262.823 87.584C262.566 88.9067 261.841 90.144 260.646 91.296C259.494 92.448 258.065 93.3653 256.358 94.048C254.652 94.7307 252.86 95.072 250.982 95.072C247.91 95.072 245.159 94.368 242.727 92.96C240.295 91.5093 238.374 89.5253 236.966 87.008C235.601 84.448 234.919 81.504 234.919 78.176C234.919 74.7627 235.601 71.7333 236.966 69.088C238.374 66.4427 240.273 64.3733 242.662 62.88C245.052 61.3867 247.74 60.64 250.727 60.64C251.964 60.64 253.159 60.7893 254.311 61.088C255.505 61.344 256.593 61.728 257.575 62.24C258.599 62.752 259.494 63.328 260.262 63.968C261.073 64.608 261.734 65.312 262.246 66.08C262.758 66.848 263.078 67.616 263.206 68.384L261.094 69.024L261.479 61.344H271.271V92.512C271.271 95.2853 270.844 97.76 269.991 99.936C269.18 102.112 267.964 103.947 266.342 105.44C264.764 106.933 262.844 108.064 260.583 108.832C258.321 109.643 255.74 110.048 252.839 110.048ZM253.094 87.072C254.758 87.072 256.188 86.7093 257.382 85.984C258.62 85.2587 259.559 84.2347 260.199 82.912C260.881 81.5893 261.223 80.0533 261.223 78.304C261.223 76.4693 260.881 74.8907 260.199 73.568C259.559 72.2453 258.62 71.2213 257.382 70.496C256.188 69.728 254.758 69.344 253.094 69.344C251.516 69.344 250.129 69.728 248.935 70.496C247.74 71.2213 246.801 72.2453 246.118 73.568C245.479 74.8907 245.159 76.448 245.159 78.24C245.159 80.032 245.479 81.5893 246.118 82.912C246.801 84.2347 247.74 85.2587 248.935 85.984C250.129 86.7093 251.516 87.072 253.094 87.072Z" fill="#212B36"/>
<path d="M280.738 95.328V61.344H291.042V95.328H280.738ZM285.921 54.624C283.959 54.624 282.423 54.176 281.314 53.28C280.247 52.3413 279.714 51.0187 279.714 49.312C279.714 47.7333 280.268 46.4533 281.378 45.472C282.487 44.4907 284.001 44 285.921 44C287.799 44 289.271 44.4693 290.337 45.408C291.447 46.304 292.001 47.6053 292.001 49.312C292.001 50.8907 291.447 52.1707 290.337 53.152C289.271 54.1333 287.799 54.624 285.921 54.624Z" fill="#212B36"/>
<defs>
<linearGradient id="paint0_linear_866_55671" x1="43.2558" y1="50.355" x2="77.0031" y2="132.404" gradientUnits="userSpaceOnUse">
<stop offset="0.420797" stop-color="#4095D0"/>
<stop offset="1" stop-color="#3BE2B0"/>
</linearGradient>
</defs>
</svg>
